<svg viewBox="0 0 780 220" xmlns="http://www.w3.org/2000/svg">
  <rect x="2" y="2" width="776" height="216" rx="16" fill="#ffffff" stroke="#111111" stroke-width="3"/>
  <rect x="40" y="20" width="700" height="180" rx="10" fill="none" stroke="#cccccc" stroke-width="1.5" stroke-dasharray="4 4"/>
  <text x="60" y="14" fill="#555555" font-family="monospace" font-size="11">LAN (LOCAL AREA NETWORK)</text>
  <rect x="310" y="80" width="160" height="60" rx="6" fill="#f2fbfa" stroke="#0e9488" stroke-width="1.5"/>
  <text x="390" y="115" fill="#0e9488" font-family="monospace" font-size="13" text-anchor="middle" font-weight="600">SWITCH</text>
  <g fill="#0e9488">
    <rect x="322" y="134" width="6" height="10"/><rect x="334" y="134" width="6" height="10"/>
    <rect x="346" y="134" width="6" height="10"/><rect x="358" y="134" width="6" height="10"/>
    <rect x="442" y="134" width="6" height="10"/><rect x="454" y="134" width="6" height="10"/>
    <rect x="466" y="134" width="6" height="10"/><rect x="478" y="134" width="6" height="10"/>
  </g>
  <g font-family="monospace" font-size="10" fill="#555555" text-anchor="middle">
    <rect x="70" y="150" width="46" height="34" rx="4" fill="none" stroke="#6c4fd6" stroke-width="1.3"/>
    <text x="93" y="196">PC-A</text>
    <rect x="150" y="150" width="46" height="34" rx="4" fill="none" stroke="#6c4fd6" stroke-width="1.3"/>
    <text x="173" y="196">PC-B</text>
    <rect x="590" y="150" width="46" height="34" rx="4" fill="none" stroke="#6c4fd6" stroke-width="1.3"/>
    <text x="613" y="196">PC-C</text>
    <rect x="670" y="150" width="46" height="34" rx="4" fill="none" stroke="#6c4fd6" stroke-width="1.3"/>
    <text x="693" y="196">PC-D</text>
  </g>
  <path d="M93 150 V60 H340 V140" fill="none" stroke="#cccccc" stroke-width="1.5"/>
  <path d="M173 150 V70 H352 V140" fill="none" stroke="#cccccc" stroke-width="1.5"/>
  <path d="M613 150 V60 H448 V140" fill="none" stroke="#cccccc" stroke-width="1.5"/>
  <path d="M693 150 V70 H460 V140" fill="none" stroke="#cccccc" stroke-width="1.5"/>
</svg>
