<svg viewBox="0 0 780 220" xmlns="http://www.w3.org/2000/svg">
  <rect x="2" y="2" width="776" height="216" rx="16" fill="#ffffff" stroke="#111111" stroke-width="3"/>
  <rect x="30" y="30" width="220" height="160" rx="10" fill="none" stroke="#cccccc" stroke-width="1.5" stroke-dasharray="4 4"/>
  <text x="45" y="22" fill="#555555" font-family="monospace" font-size="11">LAN 1</text>
  <rect x="60" y="130" width="70" height="30" rx="4" fill="none" stroke="#6c4fd6" stroke-width="1.3"/>
  <text x="95" y="150" fill="#555555" font-family="monospace" font-size="10" text-anchor="middle">SWITCH</text>
  <rect x="60" y="70" width="46" height="32" rx="4" fill="none" stroke="#6c4fd6" stroke-width="1.1"/>
  <text x="83" y="90" fill="#555555" font-family="monospace" font-size="9" text-anchor="middle">PC</text>
  <rect x="160" y="70" width="46" height="32" rx="4" fill="none" stroke="#6c4fd6" stroke-width="1.1"/>
  <text x="183" y="90" fill="#555555" font-family="monospace" font-size="9" text-anchor="middle">PC</text>
  <path d="M83 102 V145" stroke="#cccccc" stroke-width="1.3"/>
  <path d="M183 102 V145" stroke="#cccccc" stroke-width="1.3"/>

  <rect x="530" y="30" width="220" height="160" rx="10" fill="none" stroke="#cccccc" stroke-width="1.5" stroke-dasharray="4 4"/>
  <text x="545" y="22" fill="#555555" font-family="monospace" font-size="11">LAN 2</text>
  <rect x="650" y="130" width="70" height="30" rx="4" fill="none" stroke="#6c4fd6" stroke-width="1.3"/>
  <text x="685" y="150" fill="#555555" font-family="monospace" font-size="10" text-anchor="middle">SWITCH</text>
  <rect x="574" y="70" width="46" height="32" rx="4" fill="none" stroke="#6c4fd6" stroke-width="1.1"/>
  <text x="597" y="90" fill="#555555" font-family="monospace" font-size="9" text-anchor="middle">PC</text>
  <rect x="674" y="70" width="46" height="32" rx="4" fill="none" stroke="#6c4fd6" stroke-width="1.1"/>
  <text x="697" y="90" fill="#555555" font-family="monospace" font-size="9" text-anchor="middle">PC</text>
  <path d="M597 102 V145" stroke="#cccccc" stroke-width="1.3"/>
  <path d="M697 102 V145" stroke="#cccccc" stroke-width="1.3"/>

  <circle cx="390" cy="110" r="46" fill="#f5f2fd" stroke="#6c4fd6" stroke-width="1.5"/>
  <text x="390" y="106" fill="#6c4fd6" font-family="monospace" font-size="12" text-anchor="middle" font-weight="600">ROUTER</text>
  <text x="390" y="122" fill="#555555" font-family="monospace" font-size="9" text-anchor="middle">INTERNET</text>

  <path d="M130 145 H344" stroke="#cccccc" stroke-width="1.6"/>
  <path d="M650 145 H436" stroke="#cccccc" stroke-width="1.6"/>
  <circle cx="240" cy="145" r="3.5" fill="#b5730f"/>
</svg>
